<svg xmlns="http://www.w3.org/2000/svg" xmlns:xlink="http://www.w3.org/1999/xlink" width="85" zoomAndPan="magnify" viewBox="0 0 375 374.999991" height="85" preserveAspectRatio="xMidYMid meet" version="1.0"><defs><g/></defs><rect x="-37.5" width="450" fill="#ffffff" y="-37.499999" height="449.999989" fill-opacity="1"/><g fill="#3d3d3d" fill-opacity="1"><g transform="translate(13.894357, 150.618626)"><g><path d="M 22.363281 1.003906 C 34.617188 1.003906 41.855469 -6.378906 41.855469 -15.050781 C 41.855469 -22.71875 37.628906 -26.804688 31.175781 -29.457031 L 24.226562 -32.394531 C 19.710938 -34.1875 15.910156 -35.550781 15.910156 -39.347656 C 15.910156 -42.859375 18.921875 -44.9375 23.578125 -44.9375 C 27.953125 -44.9375 31.464844 -43.359375 34.832031 -40.566406 L 40.207031 -47.230469 C 35.90625 -51.605469 29.742188 -54.039062 23.578125 -54.039062 C 12.828125 -54.039062 5.230469 -47.375 5.230469 -38.703125 C 5.230469 -30.960938 10.605469 -26.660156 15.984375 -24.441406 L 23.078125 -21.429688 C 27.808594 -19.421875 31.035156 -18.203125 31.035156 -14.261719 C 31.035156 -10.535156 28.09375 -8.171875 22.578125 -8.171875 C 17.917969 -8.171875 12.902344 -10.535156 9.101562 -14.046875 L 3.011719 -6.738281 C 8.171875 -1.792969 15.265625 1.003906 22.363281 1.003906 Z M 22.363281 1.003906 "/></g></g><g transform="translate(58.617439, 150.618626)"><g><path d="M 6.523438 0 L 39.847656 0 L 39.847656 -8.886719 L 17.128906 -8.886719 L 17.128906 -23.078125 L 35.765625 -23.078125 L 35.765625 -31.964844 L 17.128906 -31.964844 L 17.128906 -44.222656 L 39.0625 -44.222656 L 39.0625 -53.035156 L 6.523438 -53.035156 Z M 6.523438 0 "/></g></g><g transform="translate(102.695476, 150.618626)"><g><path d="M 27.59375 1.003906 C 41.640625 1.003906 51.316406 -9.53125 51.316406 -26.734375 C 51.316406 -43.933594 41.640625 -54.039062 27.59375 -54.039062 C 13.546875 -54.039062 3.871094 -44.007812 3.871094 -26.734375 C 3.871094 -9.53125 13.546875 1.003906 27.59375 1.003906 Z M 27.59375 -8.171875 C 19.710938 -8.171875 14.691406 -15.410156 14.691406 -26.734375 C 14.691406 -38.128906 19.710938 -44.9375 27.59375 -44.9375 C 35.476562 -44.9375 40.496094 -38.128906 40.496094 -26.734375 C 40.496094 -15.410156 35.476562 -8.171875 27.59375 -8.171875 Z M 27.59375 -8.171875 "/></g></g></g><g fill="#3d3d3d" fill-opacity="1"><g transform="translate(157.882602, 150.618626)"><g><path d="M 6.523438 0 L 17.128906 0 L 17.128906 -22.933594 L 37.199219 -22.933594 L 37.199219 0 L 47.734375 0 L 47.734375 -53.035156 L 37.199219 -53.035156 L 37.199219 -32.179688 L 17.128906 -32.179688 L 17.128906 -53.035156 L 6.523438 -53.035156 Z M 6.523438 0 "/></g></g></g><g fill="#3d3d3d" fill-opacity="1"><g transform="translate(212.138002, 150.618626)"><g><path d="M 15.480469 0 L 26.089844 0 L 26.089844 -19.421875 L 42.070312 -53.035156 L 31.035156 -53.035156 L 25.730469 -40.136719 C 24.226562 -36.195312 22.648438 -32.46875 21 -28.382812 L 20.714844 -28.382812 C 19.066406 -32.46875 17.632812 -36.195312 16.125 -40.136719 L 10.824219 -53.035156 L -0.429688 -53.035156 L 15.480469 -19.421875 Z M 15.480469 0 "/></g></g></g><g fill="#3d3d3d" fill-opacity="1"><g transform="translate(253.779196, 150.618626)"><g><path d="M 26.875 1.003906 C 39.847656 1.003906 47.375 -6.234375 47.375 -23.867188 L 47.375 -53.035156 L 37.199219 -53.035156 L 37.199219 -22.933594 C 37.199219 -11.898438 33.183594 -8.171875 26.875 -8.171875 C 20.640625 -8.171875 16.84375 -11.898438 16.84375 -22.933594 L 16.84375 -53.035156 L 6.234375 -53.035156 L 6.234375 -23.867188 C 6.234375 -6.234375 13.976562 1.003906 26.875 1.003906 Z M 26.875 1.003906 "/></g></g><g transform="translate(307.389557, 150.618626)"><g><path d="M 6.523438 0 L 16.554688 0 L 16.554688 -21.285156 C 16.554688 -27.378906 15.769531 -34.042969 15.265625 -39.777344 L 15.625 -39.777344 L 21 -28.382812 L 36.335938 0 L 47.089844 0 L 47.089844 -53.035156 L 37.054688 -53.035156 L 37.054688 -31.894531 C 37.054688 -25.875 37.84375 -18.851562 38.414062 -13.332031 L 38.058594 -13.332031 L 32.753906 -24.796875 L 17.34375 -53.035156 L 6.523438 -53.035156 Z M 6.523438 0 "/></g></g></g><g fill="#3d3d3d" fill-opacity="1"><g transform="translate(91.585253, 224.849927)"><g><path d="M 6.523438 0 L 17.128906 0 L 17.128906 -18.851562 L 24.226562 -18.851562 C 35.621094 -18.851562 44.722656 -24.296875 44.722656 -36.410156 C 44.722656 -48.953125 35.691406 -53.035156 23.9375 -53.035156 L 6.523438 -53.035156 Z M 17.128906 -27.234375 L 17.128906 -44.652344 L 23.148438 -44.652344 C 30.460938 -44.652344 34.332031 -42.574219 34.332031 -36.410156 C 34.332031 -30.316406 30.820312 -27.234375 23.507812 -27.234375 Z M 17.128906 -27.234375 "/></g></g></g><g fill="#3d3d3d" fill-opacity="1"><g transform="translate(139.390199, 224.849927)"><g><path d="M 16.484375 -21.859375 L 18.0625 -27.664062 C 19.636719 -33.183594 21.214844 -39.203125 22.578125 -45.011719 L 22.863281 -45.011719 C 24.441406 -39.277344 25.875 -33.183594 27.523438 -27.664062 L 29.097656 -21.859375 Z M 35.117188 0 L 46.226562 0 L 29.171875 -53.035156 L 16.699219 -53.035156 L -0.285156 0 L 10.464844 0 L 14.191406 -13.617188 L 31.390625 -13.617188 Z M 35.117188 0 "/></g></g></g><g fill="#3d3d3d" fill-opacity="1"><g transform="translate(185.33169, 224.849927)"><g><path d="M 17.128906 -44.652344 L 24.011719 -44.652344 C 30.820312 -44.652344 34.546875 -42.714844 34.546875 -36.984375 C 34.546875 -31.320312 30.820312 -28.453125 24.011719 -28.453125 L 17.128906 -28.453125 Z M 47.230469 0 L 34.832031 -21.714844 C 40.925781 -24.082031 44.9375 -29.027344 44.9375 -36.984375 C 44.9375 -49.167969 36.121094 -53.035156 25.011719 -53.035156 L 6.523438 -53.035156 L 6.523438 0 L 17.128906 0 L 17.128906 -20.066406 L 24.511719 -20.066406 L 35.40625 0 Z M 47.230469 0 "/></g></g><g transform="translate(234.211725, 224.849927)"><g><path d="M 6.523438 0 L 17.128906 0 L 17.128906 -14.90625 L 24.082031 -23.796875 L 37.769531 0 L 49.453125 0 L 30.390625 -32.179688 L 46.585938 -53.035156 L 34.902344 -53.035156 L 17.34375 -30.03125 L 17.128906 -30.03125 L 17.128906 -53.035156 L 6.523438 -53.035156 Z M 6.523438 0 "/></g></g></g><g fill="#3d3d3d" fill-opacity="1"><g transform="translate(70.155576, 278.258517)"><g><path d="M 1.234375 0 L 4.816406 0 C 7.027344 0 8.710938 -0.9375 8.710938 -2.957031 C 8.710938 -4.3125 7.910156 -5.074219 6.824219 -5.332031 L 6.824219 -5.398438 C 7.679688 -5.699219 8.195312 -6.648438 8.195312 -7.570312 C 8.195312 -9.441406 6.621094 -10.039062 4.558594 -10.039062 L 1.234375 -10.039062 Z M 3.242188 -5.957031 L 3.242188 -8.507812 L 4.4375 -8.507812 C 5.644531 -8.507812 6.242188 -8.152344 6.242188 -7.273438 C 6.242188 -6.472656 5.683594 -5.957031 4.410156 -5.957031 Z M 3.242188 -1.546875 L 3.242188 -4.464844 L 4.640625 -4.464844 C 6.023438 -4.464844 6.757812 -4.054688 6.757812 -3.078125 C 6.757812 -2.035156 6.011719 -1.546875 4.640625 -1.546875 Z M 3.242188 -1.546875 "/></g></g></g><g fill="#3d3d3d" fill-opacity="1"><g transform="translate(84.821504, 278.258517)"><g><path d="M 3.121094 -4.136719 L 3.417969 -5.238281 C 3.71875 -6.28125 4.015625 -7.421875 4.273438 -8.519531 L 4.328125 -8.519531 C 4.625 -7.433594 4.898438 -6.28125 5.210938 -5.238281 L 5.507812 -4.136719 Z M 6.648438 0 L 8.75 0 L 5.523438 -10.039062 L 3.160156 -10.039062 L -0.0546875 0 L 1.980469 0 L 2.6875 -2.578125 L 5.941406 -2.578125 Z M 6.648438 0 "/></g></g></g><g fill="#3d3d3d" fill-opacity="1"><g transform="translate(98.944742, 278.258517)"><g><path d="M 5.332031 0.191406 C 6.632812 0.191406 7.707031 -0.324219 8.535156 -1.289062 L 7.476562 -2.535156 C 6.933594 -1.953125 6.253906 -1.546875 5.398438 -1.546875 C 3.8125 -1.546875 2.78125 -2.863281 2.78125 -5.046875 C 2.78125 -7.203125 3.921875 -8.507812 5.441406 -8.507812 C 6.199219 -8.507812 6.785156 -8.152344 7.285156 -7.664062 L 8.34375 -8.941406 C 7.691406 -9.617188 6.675781 -10.230469 5.398438 -10.230469 C 2.863281 -10.230469 0.734375 -8.289062 0.734375 -4.980469 C 0.734375 -1.628906 2.792969 0.191406 5.332031 0.191406 Z M 5.332031 0.191406 "/></g></g></g><g fill="#3d3d3d" fill-opacity="1"><g transform="translate(113.285054, 278.258517)"><g><path d="M 1.234375 0 L 3.242188 0 L 3.242188 -2.820312 L 4.558594 -4.503906 L 7.148438 0 L 9.359375 0 L 5.753906 -6.089844 L 8.820312 -10.039062 L 6.605469 -10.039062 L 3.28125 -5.683594 L 3.242188 -5.683594 L 3.242188 -10.039062 L 1.234375 -10.039062 Z M 1.234375 0 "/></g></g></g><g fill="#3d3d3d" fill-opacity="1"><g transform="translate(128.018813, 278.258517)"><g><path d="M 1.234375 0 L 7.542969 0 L 7.542969 -1.683594 L 3.242188 -1.683594 L 3.242188 -4.367188 L 6.769531 -4.367188 L 6.769531 -6.050781 L 3.242188 -6.050781 L 3.242188 -8.371094 L 7.394531 -8.371094 L 7.394531 -10.039062 L 1.234375 -10.039062 Z M 1.234375 0 "/></g></g></g><g fill="#3d3d3d" fill-opacity="1"><g transform="translate(141.789314, 278.258517)"><g><path d="M 1.234375 0 L 3.132812 0 L 3.132812 -4.03125 C 3.132812 -5.183594 2.984375 -6.445312 2.890625 -7.53125 L 2.957031 -7.53125 L 3.976562 -5.371094 L 6.878906 0 L 8.914062 0 L 8.914062 -10.039062 L 7.015625 -10.039062 L 7.015625 -6.039062 C 7.015625 -4.898438 7.164062 -3.566406 7.273438 -2.523438 L 7.203125 -2.523438 L 6.199219 -4.695312 L 3.28125 -10.039062 L 1.234375 -10.039062 Z M 1.234375 0 "/></g></g></g><g fill="#3d3d3d" fill-opacity="1"><g transform="translate(157.377808, 278.258517)"><g><path d="M 1.234375 0 L 4.097656 0 C 7.054688 0 8.953125 -1.683594 8.953125 -5.058594 C 8.953125 -8.453125 7.054688 -10.039062 3.988281 -10.039062 L 1.234375 -10.039062 Z M 3.242188 -1.613281 L 3.242188 -8.4375 L 3.867188 -8.4375 C 5.738281 -8.4375 6.90625 -7.515625 6.90625 -5.058594 C 6.90625 -2.617188 5.738281 -1.613281 3.867188 -1.613281 Z M 3.242188 -1.613281 "/></g></g></g><g fill="#3d3d3d" fill-opacity="1"><g transform="translate(172.491444, 278.258517)"><g/></g></g><g fill="#3d3d3d" fill-opacity="1"><g transform="translate(181.717002, 278.258517)"><g><path d="M 1.234375 0 L 4.097656 0 C 7.054688 0 8.953125 -1.683594 8.953125 -5.058594 C 8.953125 -8.453125 7.054688 -10.039062 3.988281 -10.039062 L 1.234375 -10.039062 Z M 3.242188 -1.613281 L 3.242188 -8.4375 L 3.867188 -8.4375 C 5.738281 -8.4375 6.90625 -7.515625 6.90625 -5.058594 C 6.90625 -2.617188 5.738281 -1.613281 3.867188 -1.613281 Z M 3.242188 -1.613281 "/></g></g></g><g fill="#3d3d3d" fill-opacity="1"><g transform="translate(196.830638, 278.258517)"><g><path d="M 1.234375 0 L 7.542969 0 L 7.542969 -1.683594 L 3.242188 -1.683594 L 3.242188 -4.367188 L 6.769531 -4.367188 L 6.769531 -6.050781 L 3.242188 -6.050781 L 3.242188 -8.371094 L 7.394531 -8.371094 L 7.394531 -10.039062 L 1.234375 -10.039062 Z M 1.234375 0 "/></g></g></g><g fill="#3d3d3d" fill-opacity="1"><g transform="translate(210.601143, 278.258517)"><g><path d="M 3 0 L 5.386719 0 L 8.464844 -10.039062 L 6.429688 -10.039062 L 5.128906 -5.15625 C 4.816406 -4.042969 4.585938 -3.039062 4.273438 -1.914062 L 4.207031 -1.914062 C 3.878906 -3.039062 3.675781 -4.042969 3.363281 -5.15625 L 2.035156 -10.039062 L -0.0664062 -10.039062 Z M 3 0 "/></g></g></g><g fill="#3d3d3d" fill-opacity="1"><g transform="translate(224.412344, 278.258517)"><g><path d="M 1.234375 0 L 7.542969 0 L 7.542969 -1.683594 L 3.242188 -1.683594 L 3.242188 -4.367188 L 6.769531 -4.367188 L 6.769531 -6.050781 L 3.242188 -6.050781 L 3.242188 -8.371094 L 7.394531 -8.371094 L 7.394531 -10.039062 L 1.234375 -10.039062 Z M 1.234375 0 "/></g></g></g><g fill="#3d3d3d" fill-opacity="1"><g transform="translate(238.182849, 278.258517)"><g><path d="M 1.234375 0 L 7.3125 0 L 7.3125 -1.683594 L 3.242188 -1.683594 L 3.242188 -10.039062 L 1.234375 -10.039062 Z M 1.234375 0 "/></g></g></g><g fill="#3d3d3d" fill-opacity="1"><g transform="translate(251.4378, 278.258517)"><g><path d="M 5.222656 0.191406 C 7.882812 0.191406 9.714844 -1.804688 9.714844 -5.058594 C 9.714844 -8.316406 7.882812 -10.230469 5.222656 -10.230469 C 2.5625 -10.230469 0.734375 -8.332031 0.734375 -5.058594 C 0.734375 -1.804688 2.5625 0.191406 5.222656 0.191406 Z M 5.222656 -1.546875 C 3.730469 -1.546875 2.78125 -2.917969 2.78125 -5.058594 C 2.78125 -7.21875 3.730469 -8.507812 5.222656 -8.507812 C 6.714844 -8.507812 7.664062 -7.21875 7.664062 -5.058594 C 7.664062 -2.917969 6.714844 -1.546875 5.222656 -1.546875 Z M 5.222656 -1.546875 "/></g></g></g><g fill="#3d3d3d" fill-opacity="1"><g transform="translate(267.311198, 278.258517)"><g><path d="M 1.234375 0 L 3.242188 0 L 3.242188 -3.566406 L 4.585938 -3.566406 C 6.742188 -3.566406 8.464844 -4.597656 8.464844 -6.890625 C 8.464844 -9.265625 6.757812 -10.039062 4.53125 -10.039062 L 1.234375 -10.039062 Z M 3.242188 -5.15625 L 3.242188 -8.453125 L 4.382812 -8.453125 C 5.765625 -8.453125 6.5 -8.058594 6.5 -6.890625 C 6.5 -5.738281 5.832031 -5.15625 4.449219 -5.15625 Z M 3.242188 -5.15625 "/></g></g></g><g fill="#3d3d3d" fill-opacity="1"><g transform="translate(281.787193, 278.258517)"><g><path d="M 1.234375 0 L 7.542969 0 L 7.542969 -1.683594 L 3.242188 -1.683594 L 3.242188 -4.367188 L 6.769531 -4.367188 L 6.769531 -6.050781 L 3.242188 -6.050781 L 3.242188 -8.371094 L 7.394531 -8.371094 L 7.394531 -10.039062 L 1.234375 -10.039062 Z M 1.234375 0 "/></g></g></g><g fill="#3d3d3d" fill-opacity="1"><g transform="translate(295.557698, 278.258517)"><g><path d="M 3.242188 -8.453125 L 4.546875 -8.453125 C 5.832031 -8.453125 6.539062 -8.085938 6.539062 -7 C 6.539062 -5.929688 5.832031 -5.386719 4.546875 -5.386719 L 3.242188 -5.386719 Z M 8.941406 0 L 6.59375 -4.109375 C 7.746094 -4.558594 8.507812 -5.496094 8.507812 -7 C 8.507812 -9.308594 6.835938 -10.039062 4.734375 -10.039062 L 1.234375 -10.039062 L 1.234375 0 L 3.242188 0 L 3.242188 -3.796875 L 4.640625 -3.796875 L 6.703125 0 Z M 8.941406 0 "/></g></g></g><path stroke-linecap="butt" transform="matrix(1.27985, 0, 0, 1.27985, 60.794842, 291.18953)" fill="none" stroke-linejoin="miter" d="M -0.00146373 2.000601 L 198.001472 2.000601 " stroke="#a8a8a8" stroke-width="4" stroke-opacity="1" stroke-miterlimit="4"/><path stroke-linecap="butt" transform="matrix(1.27985, 0, 0, 1.27985, 60.794842, 249.423032)" fill="none" stroke-linejoin="miter" d="M -0.00146373 2.001284 L 198.001472 2.001284 " stroke="#a8a8a8" stroke-width="4" stroke-opacity="1" stroke-miterlimit="4"/></svg>