<svg xmlns="http://www.w3.org/2000/svg" xmlns:xlink="http://www.w3.org/1999/xlink" width="10" zoomAndPan="magnify" viewBox="0 0 375 374.999991" height="10" preserveAspectRatio="xMidYMid meet" version="1.0"><defs><g/></defs><rect x="-37.5" width="450" fill="#ffffff" y="-37.499999" height="449.999989" fill-opacity="1"/><rect x="-37.5" width="450" fill="#3d3d3d" y="-37.499999" height="449.999989" fill-opacity="1"/><g fill="#ffffff" fill-opacity="1"><g transform="translate(13.933559, 150.467375)"><g><path d="M 22.359375 1.003906 C 34.617188 1.003906 41.855469 -6.378906 41.855469 -15.050781 C 41.855469 -22.71875 37.625 -26.804688 31.175781 -29.457031 L 24.222656 -32.394531 C 19.710938 -34.1875 15.910156 -35.546875 15.910156 -39.347656 C 15.910156 -42.859375 18.921875 -44.9375 23.578125 -44.9375 C 27.953125 -44.9375 31.464844 -43.359375 34.832031 -40.566406 L 40.207031 -47.230469 C 35.90625 -51.601562 29.742188 -54.039062 23.578125 -54.039062 C 12.828125 -54.039062 5.230469 -47.375 5.230469 -38.703125 C 5.230469 -30.960938 10.605469 -26.660156 15.980469 -24.441406 L 23.078125 -21.429688 C 27.808594 -19.421875 31.03125 -18.203125 31.03125 -14.261719 C 31.03125 -10.535156 28.09375 -8.171875 22.574219 -8.171875 C 17.917969 -8.171875 12.902344 -10.535156 9.101562 -14.046875 L 3.011719 -6.738281 C 8.171875 -1.792969 15.265625 1.003906 22.359375 1.003906 Z M 22.359375 1.003906 "/></g></g></g><g fill="#ffffff" fill-opacity="1"><g transform="translate(58.649543, 150.467375)"><g><path d="M 6.523438 0 L 39.847656 0 L 39.847656 -8.886719 L 17.128906 -8.886719 L 17.128906 -23.078125 L 35.761719 -23.078125 L 35.761719 -31.964844 L 17.128906 -31.964844 L 17.128906 -44.21875 L 39.058594 -44.21875 L 39.058594 -53.035156 L 6.523438 -53.035156 Z M 6.523438 0 "/></g></g></g><g fill="#ffffff" fill-opacity="1"><g transform="translate(102.720585, 150.467375)"><g><path d="M 27.59375 1.003906 C 41.640625 1.003906 51.316406 -9.53125 51.316406 -26.734375 C 51.316406 -43.933594 41.640625 -54.039062 27.59375 -54.039062 C 13.546875 -54.039062 3.871094 -44.003906 3.871094 -26.734375 C 3.871094 -9.53125 13.546875 1.003906 27.59375 1.003906 Z M 27.59375 -8.171875 C 19.710938 -8.171875 14.691406 -15.410156 14.691406 -26.734375 C 14.691406 -38.128906 19.710938 -44.9375 27.59375 -44.9375 C 35.476562 -44.9375 40.492188 -38.128906 40.492188 -26.734375 C 40.492188 -15.410156 35.476562 -8.171875 27.59375 -8.171875 Z M 27.59375 -8.171875 "/></g></g></g><g fill="#ffffff" fill-opacity="1"><g transform="translate(157.898965, 150.467375)"><g><path d="M 6.523438 0 L 17.128906 0 L 17.128906 -22.933594 L 37.195312 -22.933594 L 37.195312 0 L 47.730469 0 L 47.730469 -53.035156 L 37.195312 -53.035156 L 37.195312 -32.179688 L 17.128906 -32.179688 L 17.128906 -53.035156 L 6.523438 -53.035156 Z M 6.523438 0 "/></g></g></g><g fill="#ffffff" fill-opacity="1"><g transform="translate(212.145751, 150.467375)"><g><path d="M 15.480469 0 L 26.085938 0 L 26.085938 -19.421875 L 42.070312 -53.035156 L 31.03125 -53.035156 L 25.730469 -40.136719 C 24.222656 -36.191406 22.648438 -32.464844 21 -28.382812 L 20.710938 -28.382812 C 19.0625 -32.464844 17.628906 -36.191406 16.125 -40.136719 L 10.820312 -53.035156 L -0.429688 -53.035156 L 15.480469 -19.421875 Z M 15.480469 0 "/></g></g></g><g fill="#ffffff" fill-opacity="1"><g transform="translate(253.780345, 150.467375)"><g><path d="M 26.875 1.003906 C 39.847656 1.003906 47.375 -6.234375 47.375 -23.867188 L 47.375 -53.035156 L 37.195312 -53.035156 L 37.195312 -22.933594 C 37.195312 -11.898438 33.183594 -8.171875 26.875 -8.171875 C 20.640625 -8.171875 16.84375 -11.898438 16.84375 -22.933594 L 16.84375 -53.035156 L 6.234375 -53.035156 L 6.234375 -23.867188 C 6.234375 -6.234375 13.976562 1.003906 26.875 1.003906 Z M 26.875 1.003906 "/></g></g></g><g fill="#ffffff" fill-opacity="1"><g transform="translate(307.382211, 150.467375)"><g><path d="M 6.523438 0 L 16.554688 0 L 16.554688 -21.285156 C 16.554688 -27.378906 15.765625 -34.042969 15.265625 -39.777344 L 15.625 -39.777344 L 21 -28.382812 L 36.335938 0 L 47.085938 0 L 47.085938 -53.035156 L 37.054688 -53.035156 L 37.054688 -31.894531 C 37.054688 -25.871094 37.839844 -18.847656 38.414062 -13.332031 L 38.058594 -13.332031 L 32.753906 -24.796875 L 17.34375 -53.035156 L 6.523438 -53.035156 Z M 6.523438 0 "/></g></g></g><g fill="#ffffff" fill-opacity="1"><g transform="translate(91.61716, 225.467382)"><g><path d="M 6.523438 0 L 17.128906 0 L 17.128906 -18.847656 L 24.222656 -18.847656 C 35.621094 -18.847656 44.722656 -24.296875 44.722656 -36.410156 C 44.722656 -48.949219 35.691406 -53.035156 23.9375 -53.035156 L 6.523438 -53.035156 Z M 17.128906 -27.234375 L 17.128906 -44.652344 L 23.148438 -44.652344 C 30.460938 -44.652344 34.328125 -42.570312 34.328125 -36.410156 C 34.328125 -30.316406 30.816406 -27.234375 23.507812 -27.234375 Z M 17.128906 -27.234375 "/></g></g></g><g fill="#ffffff" fill-opacity="1"><g transform="translate(139.414535, 225.467382)"><g><path d="M 16.484375 -21.859375 L 18.0625 -27.664062 C 19.636719 -33.183594 21.214844 -39.203125 22.574219 -45.007812 L 22.863281 -45.007812 C 24.441406 -39.273438 25.871094 -33.183594 27.519531 -27.664062 L 29.097656 -21.859375 Z M 35.117188 0 L 46.226562 0 L 29.167969 -53.035156 L 16.699219 -53.035156 L -0.285156 0 L 10.464844 0 L 14.191406 -13.617188 L 31.390625 -13.617188 Z M 35.117188 0 "/></g></g></g><g fill="#ffffff" fill-opacity="1"><g transform="translate(185.348744, 225.467382)"><g><path d="M 17.128906 -44.652344 L 24.007812 -44.652344 C 30.816406 -44.652344 34.546875 -42.714844 34.546875 -36.980469 C 34.546875 -31.320312 30.816406 -28.453125 24.007812 -28.453125 L 17.128906 -28.453125 Z M 47.230469 0 L 34.832031 -21.714844 C 40.921875 -24.082031 44.9375 -29.027344 44.9375 -36.980469 C 44.9375 -49.164062 36.121094 -53.035156 25.011719 -53.035156 L 6.523438 -53.035156 L 6.523438 0 L 17.128906 0 L 17.128906 -20.066406 L 24.511719 -20.066406 L 35.40625 0 Z M 47.230469 0 "/></g></g></g><g fill="#ffffff" fill-opacity="1"><g transform="translate(234.221017, 225.467382)"><g><path d="M 6.523438 0 L 17.128906 0 L 17.128906 -14.90625 L 24.082031 -23.792969 L 37.769531 0 L 49.453125 0 L 30.386719 -32.179688 L 46.585938 -53.035156 L 34.902344 -53.035156 L 17.34375 -30.03125 L 17.128906 -30.03125 L 17.128906 -53.035156 L 6.523438 -53.035156 Z M 6.523438 0 "/></g></g></g><g fill="#ffffff" fill-opacity="1"><g transform="translate(70.213366, 278.999281)"><g><path d="M 1.234375 0 L 4.8125 0 C 7.023438 0 8.707031 -0.9375 8.707031 -2.957031 C 8.707031 -4.3125 7.90625 -5.070312 6.820312 -5.328125 L 6.820312 -5.398438 C 7.675781 -5.695312 8.191406 -6.644531 8.191406 -7.566406 C 8.191406 -9.4375 6.617188 -10.035156 4.554688 -10.035156 L 1.234375 -10.035156 Z M 3.242188 -5.953125 L 3.242188 -8.503906 L 4.433594 -8.503906 C 5.640625 -8.503906 6.238281 -8.148438 6.238281 -7.269531 C 6.238281 -6.46875 5.683594 -5.953125 4.40625 -5.953125 Z M 3.242188 -1.546875 L 3.242188 -4.460938 L 4.636719 -4.460938 C 6.019531 -4.460938 6.753906 -4.054688 6.753906 -3.078125 C 6.753906 -2.035156 6.007812 -1.546875 4.636719 -1.546875 Z M 3.242188 -1.546875 "/></g></g></g><g fill="#ffffff" fill-opacity="1"><g transform="translate(84.873536, 278.999281)"><g><path d="M 3.117188 -4.136719 L 3.417969 -5.234375 C 3.714844 -6.277344 4.015625 -7.417969 4.269531 -8.515625 L 4.324219 -8.515625 C 4.625 -7.429688 4.894531 -6.277344 5.207031 -5.234375 L 5.503906 -4.136719 Z M 6.644531 0 L 8.746094 0 L 5.519531 -10.035156 L 3.160156 -10.035156 L -0.0546875 0 L 1.980469 0 L 2.683594 -2.578125 L 5.9375 -2.578125 Z M 6.644531 0 "/></g></g></g><g fill="#ffffff" fill-opacity="1"><g transform="translate(98.991371, 278.999281)"><g><path d="M 5.328125 0.191406 C 6.628906 0.191406 7.703125 -0.324219 8.527344 -1.289062 L 7.472656 -2.535156 C 6.929688 -1.953125 6.25 -1.546875 5.398438 -1.546875 C 3.808594 -1.546875 2.78125 -2.859375 2.78125 -5.042969 C 2.78125 -7.199219 3.917969 -8.503906 5.4375 -8.503906 C 6.195312 -8.503906 6.78125 -8.148438 7.28125 -7.660156 L 8.339844 -8.9375 C 7.6875 -9.613281 6.671875 -10.222656 5.398438 -10.222656 C 2.859375 -10.222656 0.730469 -8.285156 0.730469 -4.976562 C 0.730469 -1.628906 2.792969 0.191406 5.328125 0.191406 Z M 5.328125 0.191406 "/></g></g></g><g fill="#ffffff" fill-opacity="1"><g transform="translate(113.326142, 278.999281)"><g><path d="M 1.234375 0 L 3.242188 0 L 3.242188 -2.820312 L 4.554688 -4.5 L 7.144531 0 L 9.355469 0 L 5.75 -6.089844 L 8.8125 -10.035156 L 6.605469 -10.035156 L 3.28125 -5.683594 L 3.242188 -5.683594 L 3.242188 -10.035156 L 1.234375 -10.035156 Z M 1.234375 0 "/></g></g></g><g fill="#ffffff" fill-opacity="1"><g transform="translate(128.054106, 278.999281)"><g><path d="M 1.234375 0 L 7.539062 0 L 7.539062 -1.679688 L 3.242188 -1.679688 L 3.242188 -4.367188 L 6.765625 -4.367188 L 6.765625 -6.046875 L 3.242188 -6.046875 L 3.242188 -8.367188 L 7.390625 -8.367188 L 7.390625 -10.035156 L 1.234375 -10.035156 Z M 1.234375 0 "/></g></g></g><g fill="#ffffff" fill-opacity="1"><g transform="translate(141.819416, 278.999281)"><g><path d="M 1.234375 0 L 3.132812 0 L 3.132812 -4.027344 C 3.132812 -5.179688 2.984375 -6.441406 2.886719 -7.527344 L 2.957031 -7.527344 L 3.972656 -5.371094 L 6.875 0 L 8.910156 0 L 8.910156 -10.035156 L 7.011719 -10.035156 L 7.011719 -6.035156 C 7.011719 -4.894531 7.160156 -3.566406 7.269531 -2.523438 L 7.199219 -2.523438 L 6.195312 -4.691406 L 3.28125 -10.035156 L 1.234375 -10.035156 Z M 1.234375 0 "/></g></g></g><g fill="#ffffff" fill-opacity="1"><g transform="translate(157.401567, 278.999281)"><g><path d="M 1.234375 0 L 4.09375 0 C 7.050781 0 8.949219 -1.679688 8.949219 -5.058594 C 8.949219 -8.449219 7.050781 -10.035156 3.988281 -10.035156 L 1.234375 -10.035156 Z M 3.242188 -1.613281 L 3.242188 -8.433594 L 3.863281 -8.433594 C 5.734375 -8.433594 6.902344 -7.511719 6.902344 -5.058594 C 6.902344 -2.617188 5.734375 -1.613281 3.863281 -1.613281 Z M 3.242188 -1.613281 "/></g></g></g><g fill="#ffffff" fill-opacity="1"><g transform="translate(181.732366, 278.999281)"><g><path d="M 1.234375 0 L 4.09375 0 C 7.050781 0 8.949219 -1.679688 8.949219 -5.058594 C 8.949219 -8.449219 7.050781 -10.035156 3.988281 -10.035156 L 1.234375 -10.035156 Z M 3.242188 -1.613281 L 3.242188 -8.433594 L 3.863281 -8.433594 C 5.734375 -8.433594 6.902344 -7.511719 6.902344 -5.058594 C 6.902344 -2.617188 5.734375 -1.613281 3.863281 -1.613281 Z M 3.242188 -1.613281 "/></g></g></g><g fill="#ffffff" fill-opacity="1"><g transform="translate(196.839976, 278.999281)"><g><path d="M 1.234375 0 L 7.539062 0 L 7.539062 -1.679688 L 3.242188 -1.679688 L 3.242188 -4.367188 L 6.765625 -4.367188 L 6.765625 -6.046875 L 3.242188 -6.046875 L 3.242188 -8.367188 L 7.390625 -8.367188 L 7.390625 -10.035156 L 1.234375 -10.035156 Z M 1.234375 0 "/></g></g></g><g fill="#ffffff" fill-opacity="1"><g transform="translate(210.605286, 278.999281)"><g><path d="M 2.996094 0 L 5.382812 0 L 8.460938 -10.035156 L 6.425781 -10.035156 L 5.125 -5.152344 C 4.8125 -4.039062 4.582031 -3.039062 4.269531 -1.910156 L 4.203125 -1.910156 C 3.878906 -3.039062 3.675781 -4.039062 3.363281 -5.152344 L 2.035156 -10.035156 L -0.0664062 -10.035156 Z M 2.996094 0 "/></g></g></g><g fill="#ffffff" fill-opacity="1"><g transform="translate(224.411268, 278.999281)"><g><path d="M 1.234375 0 L 7.539062 0 L 7.539062 -1.679688 L 3.242188 -1.679688 L 3.242188 -4.367188 L 6.765625 -4.367188 L 6.765625 -6.046875 L 3.242188 -6.046875 L 3.242188 -8.367188 L 7.390625 -8.367188 L 7.390625 -10.035156 L 1.234375 -10.035156 Z M 1.234375 0 "/></g></g></g><g fill="#ffffff" fill-opacity="1"><g transform="translate(238.176578, 278.999281)"><g><path d="M 1.234375 0 L 7.308594 0 L 7.308594 -1.679688 L 3.242188 -1.679688 L 3.242188 -10.035156 L 1.234375 -10.035156 Z M 1.234375 0 "/></g></g></g><g fill="#ffffff" fill-opacity="1"><g transform="translate(251.426663, 278.999281)"><g><path d="M 5.21875 0.191406 C 7.878906 0.191406 9.707031 -1.804688 9.707031 -5.058594 C 9.707031 -8.3125 7.878906 -10.222656 5.21875 -10.222656 C 2.5625 -10.222656 0.730469 -8.324219 0.730469 -5.058594 C 0.730469 -1.804688 2.5625 0.191406 5.21875 0.191406 Z M 5.21875 -1.546875 C 3.730469 -1.546875 2.78125 -2.914062 2.78125 -5.058594 C 2.78125 -7.214844 3.730469 -8.503906 5.21875 -8.503906 C 6.710938 -8.503906 7.660156 -7.214844 7.660156 -5.058594 C 7.660156 -2.914062 6.710938 -1.546875 5.21875 -1.546875 Z M 5.21875 -1.546875 "/></g></g></g><g fill="#ffffff" fill-opacity="1"><g transform="translate(267.293555, 278.999281)"><g><path d="M 1.234375 0 L 3.242188 0 L 3.242188 -3.566406 L 4.582031 -3.566406 C 6.738281 -3.566406 8.460938 -4.597656 8.460938 -6.886719 C 8.460938 -9.261719 6.753906 -10.035156 4.527344 -10.035156 L 1.234375 -10.035156 Z M 3.242188 -5.152344 L 3.242188 -8.449219 L 4.378906 -8.449219 C 5.761719 -8.449219 6.496094 -8.054688 6.496094 -6.886719 C 6.496094 -5.734375 5.832031 -5.152344 4.449219 -5.152344 Z M 3.242188 -5.152344 "/></g></g></g><g fill="#ffffff" fill-opacity="1"><g transform="translate(281.763923, 278.999281)"><g><path d="M 1.234375 0 L 7.539062 0 L 7.539062 -1.679688 L 3.242188 -1.679688 L 3.242188 -4.367188 L 6.765625 -4.367188 L 6.765625 -6.046875 L 3.242188 -6.046875 L 3.242188 -8.367188 L 7.390625 -8.367188 L 7.390625 -10.035156 L 1.234375 -10.035156 Z M 1.234375 0 "/></g></g></g><g fill="#ffffff" fill-opacity="1"><g transform="translate(295.529245, 278.999281)"><g><path d="M 3.242188 -8.449219 L 4.542969 -8.449219 C 5.832031 -8.449219 6.535156 -8.082031 6.535156 -6.996094 C 6.535156 -5.925781 5.832031 -5.382812 4.542969 -5.382812 L 3.242188 -5.382812 Z M 8.9375 0 L 6.589844 -4.109375 C 7.742188 -4.554688 8.503906 -5.492188 8.503906 -6.996094 C 8.503906 -9.300781 6.835938 -10.035156 4.734375 -10.035156 L 1.234375 -10.035156 L 1.234375 0 L 3.242188 0 L 3.242188 -3.796875 L 4.636719 -3.796875 L 6.699219 0 Z M 8.9375 0 "/></g></g></g><path stroke-linecap="butt" transform="matrix(1.27985, 0, 0, 1.27985, 60.794842, 292.288574)" fill="none" stroke-linejoin="miter" d="M -0.00146373 1.999517 L 198.001472 1.999517 " stroke="#a8a8a8" stroke-width="4" stroke-opacity="1" stroke-miterlimit="4"/><path stroke-linecap="butt" transform="matrix(1.27985, 0, 0, 1.27985, 60.794842, 249.86137)" fill="none" stroke-linejoin="miter" d="M -0.00146373 2.000629 L 198.001472 2.000629 " stroke="#a8a8a8" stroke-width="4" stroke-opacity="1" stroke-miterlimit="4"/></svg>